<svg clip-rule="evenodd" fill-rule="evenodd" y="0px" x="0px" viewBox="9.1575 74.925 315.5175 187.3125" style="max-height: 500px" version="1.1" xml:space="preserve" xmlns:xlink="http://www.w3.org/1999/xlink" xmlns="http://www.w3.org/2000/svg" width="315.5175" height="187.3125"><defs><style type="text/css">
   
    .fil0 {fill:black}
   
  </style></defs><g><path d="M286 200l-7 -14 -9 0 -31 -31 -19 -30 -10 -2 -5 -13 -12 0 -25 -29 -33 9 0 13 -9 8 -13 1 -6 9 -17 6 -10 32 -8 2 -6 10 -14 2 -7 22 -11 7 -5 21 -12 30 300 0 -21 -45 -10 -8zm16 36l-11 -25 -10 -8 -6 -12 -1 0 -2 27 30 18zm-45 -55l-23 -23 -4 -6 0 19 27 10zm-52 -54l0 0 -5 -12 -10 1 0 0 15 30 0 11 18 13 -12 -20 -1 -15 -5 -8zm-22 -20l-17 -20 -25 7 1 11 -1 1 -7 45 12 10 -5 -16 9 -34 0 -14 6 3 0 14 12 8 4 -11 5 10 2 12 12 6 -8 -32zm-55 9l-11 1 6 6 7 10 -2 -17zm-20 10l-13 5 0 0 5 5 0 14 6 1 0 11 7 -9 -5 -27zm6 121l17 0 -1 -8 -26 -18 0 9 10 13 0 4zm32 0l22 0 -6 -21 -4 -22 -7 8 -16 -16 11 51zm44 0l110 0 -19 -16 -15 -11 15 18 -1 5 -8 -8 -13 -9 -5 -16 -32 -3 -28 -22 -9 -4 17 24 -8 0 -6 -13 -7 -1 -22 -19 13 34 8 0 8 22 2 19zm-18 -121l0 24 15 8 0 -13 13 11 4 19 20 16 -25 -8 -11 -20 -4 4 -21 -20 -7 -22 10 7c0,0 6,-5 6,-6z" class="fil0"/></g><text font-family="'Helvetica Neue', Helvetica, Arial-Unicode, Arial, Sans-serif" font-weight="bold" font-size="5px" fill="#000000" y="348" x="0">Created by Diane</text><text font-family="'Helvetica Neue', Helvetica, Arial-Unicode, Arial, Sans-serif" font-weight="bold" font-size="5px" fill="#000000" y="353" x="0">from the Noun Project</text></svg>